<svg xmlns="http://www.w3.org/2000/svg" xmlns:xlink="http://www.w3.org/1999/xlink" width="200" zoomAndPan="magnify" viewBox="0 0 150 149.999998" height="200" preserveAspectRatio="xMidYMid meet" version="1.0"><defs><g/><clipPath id="ebf863e4b8"><path d="M 60.566406 46.523438 L 89.746094 46.523438 L 89.746094 75.703125 L 60.566406 75.703125 Z M 60.566406 46.523438 " clip-rule="nonzero"/></clipPath><clipPath id="a76b5c5bee"><path d="M 68.816406 46.523438 L 81.496094 46.523438 C 83.683594 46.523438 85.78125 47.394531 87.328125 48.941406 C 88.875 50.488281 89.746094 52.585938 89.746094 54.773438 L 89.746094 67.453125 C 89.746094 69.640625 88.875 71.742188 87.328125 73.289062 C 85.78125 74.835938 83.683594 75.703125 81.496094 75.703125 L 68.816406 75.703125 C 66.625 75.703125 64.527344 74.835938 62.980469 73.289062 C 61.433594 71.742188 60.566406 69.640625 60.566406 67.453125 L 60.566406 54.773438 C 60.566406 52.585938 61.433594 50.488281 62.980469 48.941406 C 64.527344 47.394531 66.625 46.523438 68.816406 46.523438 Z M 68.816406 46.523438 " clip-rule="nonzero"/></clipPath><clipPath id="a57665be5b"><path d="M 67.761719 50.019531 L 82.761719 50.019531 L 82.761719 72.519531 L 67.761719 72.519531 Z M 67.761719 50.019531 " clip-rule="nonzero"/></clipPath></defs><g clip-path="url(#ebf863e4b8)"><g clip-path="url(#a76b5c5bee)"><path fill="#2cb1bc" d="M 60.566406 46.523438 L 89.746094 46.523438 L 89.746094 75.703125 L 60.566406 75.703125 Z M 60.566406 46.523438 " fill-opacity="1" fill-rule="nonzero"/></g></g><g clip-path="url(#a57665be5b)"><path fill="#f9fbfa" d="M 82.046875 50.027344 L 78.601562 50.027344 C 78.328125 50.027344 78.105469 50.25 78.105469 50.519531 L 78.105469 65.195312 C 78.105469 66.792969 76.882812 68.1875 75.285156 68.25 C 73.59375 68.316406 72.195312 66.976562 72.195312 65.296875 C 72.195312 65.027344 71.976562 64.804688 71.703125 64.804688 L 68.253906 64.804688 C 67.980469 64.804688 67.761719 65.03125 67.761719 65.308594 C 67.769531 69.105469 71.082031 72.195312 75.152344 72.195312 C 79.226562 72.195312 82.539062 69.101562 82.539062 65.296875 L 82.539062 50.519531 C 82.539062 50.25 82.320312 50.027344 82.046875 50.027344 Z M 82.046875 50.027344 " fill-opacity="1" fill-rule="nonzero"/></g><g fill="#2cb1bc" fill-opacity="1"><g transform="translate(15.31426, 98.08721)"><g><path d="M 8.1875 -16.625 L 11.609375 -16.625 L 11.609375 -5.109375 C 11.609375 -4.054688 11.375 -3.125 10.90625 -2.3125 C 10.4375 -1.5 9.773438 -0.867188 8.921875 -0.421875 C 8.078125 0.015625 7.117188 0.234375 6.046875 0.234375 C 4.285156 0.234375 2.910156 -0.210938 1.921875 -1.109375 C 0.941406 -2.003906 0.453125 -3.269531 0.453125 -4.90625 L 3.90625 -4.90625 C 3.90625 -4.09375 4.078125 -3.492188 4.421875 -3.109375 C 4.765625 -2.722656 5.304688 -2.53125 6.046875 -2.53125 C 6.703125 -2.53125 7.222656 -2.753906 7.609375 -3.203125 C 7.992188 -3.648438 8.1875 -4.285156 8.1875 -5.109375 Z M 8.1875 -16.625 "/></g></g></g><g fill="#2cb1bc" fill-opacity="1"><g transform="translate(28.375393, 98.08721)"><g><path d="M 0.75 -6.296875 C 0.75 -7.515625 0.984375 -8.601562 1.453125 -9.5625 C 1.929688 -10.53125 2.613281 -11.273438 3.5 -11.796875 C 4.382812 -12.328125 5.414062 -12.59375 6.59375 -12.59375 C 8.257812 -12.59375 9.617188 -12.082031 10.671875 -11.0625 C 11.722656 -10.039062 12.3125 -8.648438 12.4375 -6.890625 L 12.453125 -6.046875 C 12.453125 -4.148438 11.921875 -2.628906 10.859375 -1.484375 C 9.804688 -0.335938 8.390625 0.234375 6.609375 0.234375 C 4.828125 0.234375 3.40625 -0.335938 2.34375 -1.484375 C 1.28125 -2.628906 0.75 -4.179688 0.75 -6.140625 Z M 4.046875 -6.046875 C 4.046875 -4.878906 4.265625 -3.984375 4.703125 -3.359375 C 5.148438 -2.742188 5.785156 -2.4375 6.609375 -2.4375 C 7.410156 -2.4375 8.035156 -2.738281 8.484375 -3.34375 C 8.929688 -3.957031 9.15625 -4.941406 9.15625 -6.296875 C 9.15625 -7.441406 8.929688 -8.328125 8.484375 -8.953125 C 8.035156 -9.585938 7.40625 -9.90625 6.59375 -9.90625 C 5.78125 -9.90625 5.148438 -9.59375 4.703125 -8.96875 C 4.265625 -8.34375 4.046875 -7.367188 4.046875 -6.046875 Z M 4.046875 -6.046875 "/></g></g></g><g fill="#2cb1bc" fill-opacity="1"><g transform="translate(41.596366, 98.08721)"><g><path d="M 12.40625 -6.0625 C 12.40625 -4.082031 11.984375 -2.535156 11.140625 -1.421875 C 10.296875 -0.316406 9.113281 0.234375 7.59375 0.234375 C 6.25 0.234375 5.179688 -0.28125 4.390625 -1.3125 L 4.234375 0 L 1.265625 0 L 1.265625 -17.546875 L 4.5625 -17.546875 L 4.5625 -11.25 C 5.320312 -12.144531 6.328125 -12.59375 7.578125 -12.59375 C 9.078125 -12.59375 10.253906 -12.035156 11.109375 -10.921875 C 11.972656 -9.816406 12.40625 -8.257812 12.40625 -6.25 Z M 9.109375 -6.296875 C 9.109375 -7.546875 8.910156 -8.457031 8.515625 -9.03125 C 8.117188 -9.613281 7.523438 -9.90625 6.734375 -9.90625 C 5.679688 -9.90625 4.957031 -9.472656 4.5625 -8.609375 L 4.5625 -3.734375 C 4.96875 -2.867188 5.703125 -2.4375 6.765625 -2.4375 C 7.828125 -2.4375 8.523438 -2.960938 8.859375 -4.015625 C 9.023438 -4.515625 9.109375 -5.273438 9.109375 -6.296875 Z M 9.109375 -6.296875 "/></g></g></g><g fill="#2cb1bc" fill-opacity="1"><g transform="translate(54.760256, 98.08721)"><g><path d="M 7.953125 -3.421875 C 7.953125 -3.816406 7.753906 -4.128906 7.359375 -4.359375 C 6.960938 -4.597656 6.320312 -4.804688 5.4375 -4.984375 C 2.5 -5.609375 1.03125 -6.859375 1.03125 -8.734375 C 1.03125 -9.828125 1.484375 -10.742188 2.390625 -11.484375 C 3.296875 -12.222656 4.488281 -12.59375 5.96875 -12.59375 C 7.53125 -12.59375 8.78125 -12.222656 9.71875 -11.484375 C 10.664062 -10.742188 11.140625 -9.78125 11.140625 -8.59375 L 7.828125 -8.59375 C 7.828125 -9.070312 7.675781 -9.460938 7.375 -9.765625 C 7.070312 -10.078125 6.597656 -10.234375 5.953125 -10.234375 C 5.390625 -10.234375 4.957031 -10.109375 4.65625 -9.859375 C 4.351562 -9.609375 4.203125 -9.285156 4.203125 -8.890625 C 4.203125 -8.523438 4.375 -8.226562 4.71875 -8 C 5.070312 -7.78125 5.65625 -7.585938 6.46875 -7.421875 C 7.289062 -7.265625 7.984375 -7.082031 8.546875 -6.875 C 10.296875 -6.238281 11.171875 -5.128906 11.171875 -3.546875 C 11.171875 -2.421875 10.6875 -1.507812 9.71875 -0.8125 C 8.75 -0.113281 7.5 0.234375 5.96875 0.234375 C 4.9375 0.234375 4.019531 0.0507812 3.21875 -0.3125 C 2.414062 -0.6875 1.785156 -1.195312 1.328125 -1.84375 C 0.867188 -2.488281 0.640625 -3.179688 0.640625 -3.921875 L 3.765625 -3.921875 C 3.796875 -3.335938 4.015625 -2.890625 4.421875 -2.578125 C 4.828125 -2.265625 5.367188 -2.109375 6.046875 -2.109375 C 6.671875 -2.109375 7.144531 -2.226562 7.46875 -2.46875 C 7.789062 -2.707031 7.953125 -3.023438 7.953125 -3.421875 Z M 7.953125 -3.421875 "/></g></g></g><g fill="#2cb1bc" fill-opacity="1"><g transform="translate(66.782438, 98.08721)"><g/></g></g><g fill="#2cb1bc" fill-opacity="1"><g transform="translate(72.605146, 98.08721)"><g><path d="M 1.484375 0 L 1.484375 -16.625 L 7.3125 -16.625 C 9.332031 -16.625 10.863281 -16.238281 11.90625 -15.46875 C 12.945312 -14.695312 13.46875 -13.566406 13.46875 -12.078125 C 13.46875 -11.253906 13.253906 -10.53125 12.828125 -9.90625 C 12.410156 -9.289062 11.832031 -8.835938 11.09375 -8.546875 C 11.945312 -8.335938 12.617188 -7.910156 13.109375 -7.265625 C 13.597656 -6.617188 13.84375 -5.828125 13.84375 -4.890625 C 13.84375 -3.285156 13.332031 -2.070312 12.3125 -1.25 C 11.289062 -0.425781 9.835938 -0.0078125 7.953125 0 Z M 4.90625 -7.234375 L 4.90625 -2.75 L 7.84375 -2.75 C 8.65625 -2.75 9.285156 -2.941406 9.734375 -3.328125 C 10.191406 -3.710938 10.421875 -4.242188 10.421875 -4.921875 C 10.421875 -6.441406 9.628906 -7.210938 8.046875 -7.234375 Z M 4.90625 -9.65625 L 7.453125 -9.65625 C 9.179688 -9.6875 10.046875 -10.378906 10.046875 -11.734375 C 10.046875 -12.484375 9.820312 -13.023438 9.375 -13.359375 C 8.9375 -13.691406 8.25 -13.859375 7.3125 -13.859375 L 4.90625 -13.859375 Z M 4.90625 -9.65625 "/></g></g></g><g fill="#2cb1bc" fill-opacity="1"><g transform="translate(87.527265, 98.08721)"><g><path d="M 0.75 -6.296875 C 0.75 -7.515625 0.984375 -8.601562 1.453125 -9.5625 C 1.929688 -10.53125 2.613281 -11.273438 3.5 -11.796875 C 4.382812 -12.328125 5.414062 -12.59375 6.59375 -12.59375 C 8.257812 -12.59375 9.617188 -12.082031 10.671875 -11.0625 C 11.722656 -10.039062 12.3125 -8.648438 12.4375 -6.890625 L 12.453125 -6.046875 C 12.453125 -4.148438 11.921875 -2.628906 10.859375 -1.484375 C 9.804688 -0.335938 8.390625 0.234375 6.609375 0.234375 C 4.828125 0.234375 3.40625 -0.335938 2.34375 -1.484375 C 1.28125 -2.628906 0.75 -4.179688 0.75 -6.140625 Z M 4.046875 -6.046875 C 4.046875 -4.878906 4.265625 -3.984375 4.703125 -3.359375 C 5.148438 -2.742188 5.785156 -2.4375 6.609375 -2.4375 C 7.410156 -2.4375 8.035156 -2.738281 8.484375 -3.34375 C 8.929688 -3.957031 9.15625 -4.941406 9.15625 -6.296875 C 9.15625 -7.441406 8.929688 -8.328125 8.484375 -8.953125 C 8.035156 -9.585938 7.40625 -9.90625 6.59375 -9.90625 C 5.78125 -9.90625 5.148438 -9.59375 4.703125 -8.96875 C 4.265625 -8.34375 4.046875 -7.367188 4.046875 -6.046875 Z M 4.046875 -6.046875 "/></g></g></g><g fill="#2cb1bc" fill-opacity="1"><g transform="translate(100.748238, 98.08721)"><g><path d="M 8.421875 0 C 8.273438 -0.300781 8.164062 -0.671875 8.09375 -1.109375 C 7.289062 -0.210938 6.253906 0.234375 4.984375 0.234375 C 3.765625 0.234375 2.757812 -0.113281 1.96875 -0.8125 C 1.175781 -1.519531 0.78125 -2.40625 0.78125 -3.46875 C 0.78125 -4.78125 1.265625 -5.785156 2.234375 -6.484375 C 3.203125 -7.179688 4.601562 -7.535156 6.4375 -7.546875 L 7.953125 -7.546875 L 7.953125 -8.25 C 7.953125 -8.820312 7.804688 -9.28125 7.515625 -9.625 C 7.222656 -9.96875 6.765625 -10.140625 6.140625 -10.140625 C 5.578125 -10.140625 5.132812 -10.003906 4.8125 -9.734375 C 4.5 -9.472656 4.34375 -9.109375 4.34375 -8.640625 L 1.046875 -8.640625 C 1.046875 -9.359375 1.265625 -10.019531 1.703125 -10.625 C 2.148438 -11.238281 2.773438 -11.71875 3.578125 -12.0625 C 4.390625 -12.414062 5.296875 -12.59375 6.296875 -12.59375 C 7.828125 -12.59375 9.035156 -12.207031 9.921875 -11.4375 C 10.816406 -10.675781 11.265625 -9.601562 11.265625 -8.21875 L 11.265625 -2.859375 C 11.273438 -1.679688 11.441406 -0.789062 11.765625 -0.1875 L 11.765625 0 Z M 5.703125 -2.296875 C 6.191406 -2.296875 6.640625 -2.40625 7.046875 -2.625 C 7.453125 -2.84375 7.753906 -3.132812 7.953125 -3.5 L 7.953125 -5.625 L 6.734375 -5.625 C 5.078125 -5.625 4.195312 -5.050781 4.09375 -3.90625 L 4.078125 -3.71875 C 4.078125 -3.300781 4.222656 -2.957031 4.515625 -2.6875 C 4.804688 -2.425781 5.203125 -2.296875 5.703125 -2.296875 Z M 5.703125 -2.296875 "/></g></g></g><g fill="#2cb1bc" fill-opacity="1"><g transform="translate(113.284191, 98.08721)"><g><path d="M 8.21875 -9.265625 C 7.757812 -9.328125 7.363281 -9.359375 7.03125 -9.359375 C 5.78125 -9.359375 4.957031 -8.9375 4.5625 -8.09375 L 4.5625 0 L 1.265625 0 L 1.265625 -12.359375 L 4.390625 -12.359375 L 4.484375 -10.890625 C 5.140625 -12.023438 6.054688 -12.59375 7.234375 -12.59375 C 7.597656 -12.59375 7.9375 -12.539062 8.25 -12.4375 Z M 8.21875 -9.265625 "/></g></g></g><g fill="#2cb1bc" fill-opacity="1"><g transform="translate(121.812752, 98.08721)"><g><path d="M 0.75 -6.265625 C 0.75 -8.191406 1.179688 -9.726562 2.046875 -10.875 C 2.910156 -12.019531 4.09375 -12.59375 5.59375 -12.59375 C 6.800781 -12.59375 7.796875 -12.140625 8.578125 -11.234375 L 8.578125 -17.546875 L 11.890625 -17.546875 L 11.890625 0 L 8.90625 0 L 8.75 -1.3125 C 7.925781 -0.28125 6.867188 0.234375 5.578125 0.234375 C 4.117188 0.234375 2.945312 -0.335938 2.0625 -1.484375 C 1.1875 -2.628906 0.75 -4.222656 0.75 -6.265625 Z M 4.046875 -6.03125 C 4.046875 -4.875 4.25 -3.984375 4.65625 -3.359375 C 5.0625 -2.742188 5.648438 -2.4375 6.421875 -2.4375 C 7.441406 -2.4375 8.160156 -2.867188 8.578125 -3.734375 L 8.578125 -8.609375 C 8.160156 -9.472656 7.445312 -9.90625 6.4375 -9.90625 C 4.84375 -9.90625 4.046875 -8.613281 4.046875 -6.03125 Z M 4.046875 -6.03125 "/></g></g></g></svg>